{"accessors" : [{"bufferView" : 0, "byteOffset" : 0, "componentType" : 5123, "count" : 15264, "type" : "SCALAR", "max" : [10175], "min" : [0]}, {"bufferView" : 1, "byteOffset" : 0, "componentType" : 5126, "count" : 10176, "type" : "VEC3", "max" : [0.15678440034389496, 0.2843879163265228, 0.22931016981601715], "min" : [-0.1533469557762146, -0.2847478687763214, -0.22484618425369263], "name" : "POSITION"}, {"bufferView" : 1, "byteOffset" : 12, "componentType" : 5126, "count" : 10176, "type" : "VEC3", "max" : [0.9995207786560059, 0.9997370839118958, 0.9999071359634399], "min" : [-0.9999619722366333, -1.0000028610229492, -0.9998815059661865], "name" : "NORMAL"}, {"bufferView" : 1, "byteOffset" : 24, "componentType" : 5126, "count" : 10176, "type" : "VEC2", "max" : [0.962807297706604, 0.9989103078842163], "min" : [0.001089680241420865, 0.0010898113250732422], "name" : "TEXCOORD_0"}], "asset" : {"generator" : "Aspose.3D 25.3.0", "version" : "2.0"}, "buffers" : [{"uri" : "data:application/octet-stream;base64,", "byteLength" : 356168}], "bufferViews" : [{"buffer" : 0, "byteOffset" : 0, "byteLength" : 30528, "target" : 34963}, {"buffer" : 0, "byteOffset" : 30532, "byteLength" : 325632, "byteStride" : 32, "target" : 34962}], "images" : [{"uri" : "/app/job_output/17a11b9a682c_cute_chibi_puppy__b.fbm/17a11b9a682c_cute_chibi_puppy__b_normals.jpg"}, {"uri" : "/app/job_output/17a11b9a682c_cute_chibi_puppy__b.fbm/17a11b9a682c_cute_chibi_puppy__b_rgb.jpg"}], "materials" : [{"name" : "base_material", "pbrMetallicRoughness" : {"baseColorFactor" : [1, 1, 1, 1], "baseColorTexture" : {"index" : 1, "texCoord" : 0}, "metallicFactor" : 1, "roughnessFactor" : 1}, "normalTexture" : {"index" : 0, "texCoord" : 0, "scale" : 1}, "emissiveFactor" : [0, 0, 0], "alphaMode" : "OPAQUE", "doubleSided" : false}], "meshes" : [{"primitives" : [{"attributes" : {"POSITION" : 1, "NORMAL" : 2, "TEXCOORD_0" : 3}, "indices" : 0, "material" : 0, "mode" : 4}], "name" : "mesh"}], "nodes" : [{"matrix" : [175.45509338378906, 0, 0, 0, 0, 175.4550933837889, 7.669385713784663E-06, 0, 0, -7.669385713784663E-06, 175.4550933837889, 0, 0, 0, 0, 1], "mesh" : 0, "name" : "mesh"}], "samplers" : [{"magFilter" : 9729, "minFilter" : 9729, "wrapS" : 10497, "wrapT" : 10497}, {"magFilter" : 9729, "minFilter" : 9729, "wrapS" : 10497, "wrapT" : 10497}], "scene" : 0, "scenes" : [{"nodes" : [0]}], "textures" : [{"sampler" : 0, "source" : 0, "name" : "normalmap_texture"}, {"sampler" : 1, "source" : 1, "name" : "base_color_texture"}]}